<svg xmlns="http://www.w3.org/2000/svg" viewBox="0 0 100 100" width="100" height="100">
  <!-- 背景圆形 -->
  <circle cx="50" cy="50" r="45" fill="#000000" stroke="#333333" stroke-width="2"/>
  
  <!-- 雪花图案 -->
  <g transform="translate(50,50)" fill="white" stroke="white">
    <!-- 主要的六条线 -->
    <line x1="-20" y1="0" x2="20" y2="0" stroke-width="2" stroke-linecap="round"/>
    <line x1="-10" y1="-17.32" x2="10" y2="17.32" stroke-width="2" stroke-linecap="round"/>
    <line x1="10" y1="-17.32" x2="-10" y2="17.32" stroke-width="2" stroke-linecap="round"/>
    
    <!-- 装饰性的小分支 -->
    <g stroke-width="1.5" stroke-linecap="round">
      <line x1="-15" y1="-5" x2="-10" y2="0"/>
      <line x1="-15" y1="5" x2="-10" y2="0"/>
      <line x1="15" y1="-5" x2="10" y2="0"/>
      <line x1="15" y1="5" x2="10" y2="0"/>
      
      <line x1="-5" y1="-12" x2="-2.5" y2="-8.66"/>
      <line x1="-7.5" y1="-8.66" x2="-2.5" y2="-8.66"/>
      <line x1="5" y1="12" x2="2.5" y2="8.66"/>
      <line x1="7.5" y1="8.66" x2="2.5" y2="8.66"/>
      
      <line x1="5" y1="-12" x2="2.5" y2="-8.66"/>
      <line x1="7.5" y1="-8.66" x2="2.5" y2="-8.66"/>
      <line x1="-5" y1="12" x2="-2.5" y2="8.66"/>
      <line x1="-7.5" y1="8.66" x2="-2.5" y2="8.66"/>
    </g>
    
    <!-- 中心装饰 -->
    <circle cx="0" cy="0" r="3" fill="white"/>
  </g>
</svg>