<svg xmlns="http://www.w3.org/2000/svg" viewBox="0 0 100 100" width="100" height="100">
  <defs>
    <linearGradient id="grad1" x1="0%" y1="0%" x2="100%" y2="100%">
      <stop offset="0%" style="stop-color:#667eea;stop-opacity:1" />
      <stop offset="50%" style="stop-color:#764ba2;stop-opacity:1" />
      <stop offset="100%" style="stop-color:#f093fb;stop-opacity:1" />
    </linearGradient>
    <filter id="glow">
      <feGaussianBlur stdDeviation="3" result="coloredBlur"/>
      <feMerge> 
        <feMergeNode in="coloredBlur"/>
        <feMergeNode in="SourceGraphic"/> 
      </feMerge>
    </filter>
  </defs>
  
  <!-- 背景圆形 -->
  <circle cx="50" cy="50" r="45" fill="url(#grad1)" filter="url(#glow)"/>
  
  <!-- 雪花图案 -->
  <g transform="translate(50,50)" fill="white" opacity="0.9">
    <!-- 主要的六条线 -->
    <line x1="-20" y1="0" x2="20" y2="0" stroke="white" stroke-width="2" stroke-linecap="round"/>
    <line x1="-10" y1="-17.32" x2="10" y2="17.32" stroke="white" stroke-width="2" stroke-linecap="round"/>
    <line x1="10" y1="-17.32" x2="-10" y2="17.32" stroke="white" stroke-width="2" stroke-linecap="round"/>
    
    <!-- 装饰性的小分支 -->
    <g stroke="white" stroke-width="1.5" stroke-linecap="round">
      <!-- 水平线的分支 -->
      <line x1="-15" y1="-5" x2="-10" y2="0"/>
      <line x1="-15" y1="5" x2="-10" y2="0"/>
      <line x1="15" y1="-5" x2="10" y2="0"/>
      <line x1="15" y1="5" x2="10" y2="0"/>
      
      <!-- 对角线的分支 -->
      <line x1="-5" y1="-12" x2="-2.5" y2="-8.66"/>
      <line x1="-7.5" y1="-8.66" x2="-2.5" y2="-8.66"/>
      <line x1="5" y1="12" x2="2.5" y2="8.66"/>
      <line x1="7.5" y1="8.66" x2="2.5" y2="8.66"/>
      
      <line x1="5" y1="-12" x2="2.5" y2="-8.66"/>
      <line x1="7.5" y1="-8.66" x2="2.5" y2="-8.66"/>
      <line x1="-5" y1="12" x2="-2.5" y2="8.66"/>
      <line x1="-7.5" y1="8.66" x2="-2.5" y2="8.66"/>
    </g>
    
    <!-- 中心装饰 -->
    <circle cx="0" cy="0" r="3" fill="white" opacity="0.8"/>
  </g>
  
  <!-- 外围装饰点 -->
  <g fill="white" opacity="0.6">
    <circle cx="20" cy="20" r="1.5"/>
    <circle cx="80" cy="20" r="1"/>
    <circle cx="20" cy="80" r="1"/>
    <circle cx="80" cy="80" r="1.5"/>
    <circle cx="15" cy="50" r="0.8"/>
    <circle cx="85" cy="50" r="0.8"/>
    <circle cx="50" cy="15" r="1.2"/>
    <circle cx="50" cy="85" r="1.2"/>
  </g>
</svg>